<?xml version="1.0" standalone="no"?>
<!DOCTYPE svg PUBLIC "-//W3C//DTD SVG 20010904//EN"
 "http://www.w3.org/TR/2001/REC-SVG-20010904/DTD/svg10.dtd">
<svg version="1.0" xmlns="http://www.w3.org/2000/svg"
 width="1024.000000pt" height="1024.000000pt" viewBox="0 0 1024.000000 1024.000000"
 preserveAspectRatio="xMidYMid meet">

<g transform="translate(0.000000,1024.000000) scale(0.100000,-0.100000)"
fill="#000000" stroke="none">
<path d="M0 5120 l0 -5120 5120 0 5120 0 0 5120 0 5120 -5120 0 -5120 0 0
-5120z m3694 3677 c22 -22 23 -33 30 -213 12 -310 32 -381 145 -512 70 -82
127 -125 253 -194 70 -38 184 -88 202 -88 1 0 -2 64 -5 142 -3 79 -1 158 4
176 17 68 79 99 125 65 46 -34 53 -58 46 -173 -8 -144 7 -292 36 -358 12 -29
49 -90 82 -134 l59 -82 -65 -24 c-63 -23 -66 -23 -88 -6 -13 10 -44 44 -71 76
-57 70 -120 113 -297 204 -216 112 -433 282 -506 397 -22 35 -41 51 -79 67
-164 68 -294 183 -363 321 -45 89 -71 203 -58 253 11 43 49 76 89 76 49 0 74
-32 86 -109 6 -35 23 -91 39 -125 30 -65 111 -160 158 -188 l29 -16 -3 199 -4
199 35 35 c43 43 86 47 121 12z m2383 3 c40 -24 42 -37 46 -257 l2 -171 29 16
c37 22 121 123 152 184 13 26 31 76 39 110 17 75 48 108 101 108 108 0 113
-161 11 -335 -71 -122 -191 -229 -328 -294 -52 -26 -71 -41 -95 -79 -44 -69
-169 -192 -255 -248 -42 -27 -148 -89 -237 -138 -178 -98 -296 -187 -392 -295
-35 -39 -70 -71 -80 -71 -9 0 -40 7 -69 16 l-53 15 4 42 c4 29 21 66 56 117
28 42 67 106 87 144 l35 67 0 184 c0 114 4 193 11 209 6 13 26 32 45 42 41 22
77 12 108 -29 19 -25 21 -44 24 -183 4 -181 -14 -171 157 -89 114 55 243 144
306 211 56 60 108 141 115 182 4 20 15 61 25 91 16 44 19 85 19 223 0 101 4
177 11 189 10 20 66 59 84 59 6 0 24 -9 42 -20z m-2048 -216 c51 -36 58 -107
16 -170 -19 -29 -88 -74 -113 -74 -28 0 -68 35 -80 69 -19 54 79 191 137 191
9 0 27 -7 40 -16z m1692 -14 c10 -6 29 -30 40 -53 12 -23 35 -57 50 -75 16
-18 29 -39 29 -46 0 -8 7 -19 15 -26 13 -11 13 -15 3 -21 -10 -7 -10 -9 -1 -9
9 0 10 -7 3 -24 -6 -17 -5 -26 3 -30 21 -8 -16 -26 -43 -19 -132 29 -264 158
-244 238 14 56 94 92 145 65z m603 -792 c35 -50 7 -352 -48 -508 -67 -193
-216 -354 -438 -475 -108 -58 -170 -75 -272 -75 -101 0 -126 18 -126 90 0 61
13 72 125 99 86 21 192 68 261 115 90 61 214 209 256 306 19 44 51 190 44 198
-8 8 -212 -48 -285 -78 -142 -58 -242 -134 -343 -259 -33 -41 -69 -96 -80
-121 -11 -24 -25 -48 -31 -52 -15 -9 -156 -9 -178 0 -14 6 -12 17 17 90 55
135 187 307 299 390 116 85 265 148 645 271 114 36 134 38 154 9z m-2684 -53
c215 -79 328 -130 409 -184 114 -77 242 -210 241 -250 -1 -15 -101 -81 -124
-81 -7 0 -32 21 -56 46 -62 63 -148 124 -255 178 -92 47 -234 100 -243 91 -10
-10 17 -150 39 -205 43 -106 125 -205 239 -291 l35 -27 -35 -66 c-40 -75 -36
-74 -138 -24 -36 18 -88 57 -124 92 -151 149 -210 308 -225 603 -7 133 4 183
38 183 10 0 100 -29 199 -65z m1405 -466 c40 -19 51 -55 34 -110 l-14 -44
-122 -7 c-357 -19 -543 -120 -808 -438 -110 -132 -397 -347 -583 -437 l-73
-35 7 -46 c4 -26 10 -56 14 -67 12 -31 110 -125 138 -132 14 -3 127 -3 251 0
129 4 352 2 519 -5 376 -15 424 -7 545 96 38 31 59 62 93 133 50 105 39 100
149 63 l50 -17 -2 -43 c-5 -108 -99 -239 -231 -323 -136 -87 -235 -111 -479
-117 -20 0 -21 -3 -11 -31 18 -52 4 -341 -20 -423 -52 -171 -137 -301 -307
-471 -66 -66 -163 -150 -215 -187 -103 -73 -262 -158 -296 -158 -12 0 -41 17
-65 39 -53 46 -54 43 75 138 233 171 278 206 343 270 93 90 198 231 239 318
49 106 65 204 62 379 l-3 149 -355 1 c-349 2 -356 3 -410 26 -85 36 -166 97
-204 154 -59 85 -90 171 -90 250 l-1 68 44 39 c24 22 69 53 99 71 98 56 419
274 476 324 31 26 86 84 123 128 153 181 290 293 470 385 112 57 130 62 278
71 169 10 243 7 280 -11z m2003 -314 c36 -26 69 -93 123 -251 28 -82 61 -179
74 -217 36 -102 55 -250 62 -477 11 -401 -42 -713 -168 -993 -105 -234 -349
-570 -532 -734 -150 -134 -393 -297 -584 -392 -82 -40 -369 -149 -463 -175
-229 -63 -720 -79 -975 -31 -547 103 -1001 368 -1438 842 -363 393 -524 773
-578 1362 -25 275 41 658 126 737 24 22 24 26 14 67 -11 37 -9 53 9 113 28 89
55 134 84 135 38 2 72 -3 90 -12 61 -33 63 -84 8 -185 -22 -40 -45 -97 -51
-126 -5 -29 -16 -80 -24 -113 -32 -138 -48 -310 -48 -520 0 -222 8 -306 49
-469 86 -344 217 -601 452 -882 140 -167 319 -319 562 -476 224 -144 592 -275
868 -310 183 -23 567 10 854 72 329 71 658 252 908 500 145 144 203 211 270
313 88 134 130 203 130 213 0 5 15 34 34 65 19 31 37 67 41 80 4 13 22 63 41
110 81 211 116 417 116 694 -1 343 -51 632 -153 871 -21 50 -41 110 -45 132
-6 37 -4 41 22 56 37 20 94 20 122 1z m-2319 -231 c28 -23 31 -32 31 -80 0
-53 0 -53 -57 -96 l-57 -43 -90 0 c-91 0 -156 16 -156 39 1 20 41 101 63 125
35 38 135 81 189 81 35 0 54 -6 77 -26z m816 -206 c96 -114 202 -447 241 -759
20 -157 22 -617 4 -733 -41 -259 -84 -405 -168 -572 -59 -117 -147 -251 -205
-311 -40 -42 -43 -43 -107 -43 -89 0 -99 8 -76 57 10 21 50 88 90 148 137 207
227 446 268 709 17 114 22 185 22 371 1 436 -52 693 -205 1011 -33 69 -57 130
-52 134 12 12 42 18 105 19 52 1 58 -2 83 -31z m705 -3092 c502 -119 721 -207
1018 -408 204 -138 339 -260 441 -398 73 -98 101 -151 136 -254 44 -132 32
-197 -41 -212 -45 -9 -68 18 -122 142 -27 60 -70 144 -96 185 -157 243 -607
551 -993 679 -226 74 -455 123 -663 140 -69 6 -134 14 -145 18 -11 4 -175 7
-365 8 -190 1 -431 5 -536 10 -179 9 -194 11 -228 34 -42 29 -43 50 -1 62 17
5 194 10 395 12 201 2 377 6 391 10 40 11 347 24 489 21 108 -2 152 -9 320
-49z"/>
</g>
</svg>
