<svg width="615" height="184" viewBox="0 0 615 184" fill="none" xmlns="http://www.w3.org/2000/svg">
<path d="M202.03 16.9246C205 12.3111 210.111 9.52295 215.598 9.52295C228.369 9.52295 236.078 23.6548 229.165 34.3928L147.421 161.374C144.451 165.987 139.341 168.776 133.854 168.776C121.083 168.776 113.374 154.644 120.286 143.906L202.03 16.9246Z" fill="url(#paint0_linear_5382_988)"/>
<path d="M84.5815 31.8545C87.5514 27.241 92.6622 24.4529 98.1491 24.4529C110.92 24.4529 118.629 38.5847 111.717 49.3227L29.9724 176.304C27.0024 180.917 21.8917 183.706 16.4049 183.706C3.63422 183.706 -4.07529 169.574 2.8373 158.836L84.5815 31.8545Z" fill="url(#paint1_linear_5382_988)"/>
<path d="M131.235 58.4719C125.967 58.4719 121.042 61.0831 118.087 65.4431L89.8686 107.068C82.7185 117.616 90.2741 131.866 103.016 131.866C108.284 131.866 113.209 129.254 116.164 124.894L144.382 83.2692C151.533 72.7219 143.977 58.4719 131.235 58.4719Z" fill="url(#paint2_linear_5382_988)"/>
<path d="M265.847 34.8367H272.169V71.8475H318.605V34.8367H324.927V115.295H318.605V77.4795H272.169V115.295H265.847V34.8367ZM358.897 116.214C352.767 116.214 347.824 114.299 344.07 110.467C340.315 106.559 338.438 101.464 338.438 95.1804V78.0542C338.438 71.7708 340.315 66.7135 344.07 62.8821C347.901 58.9741 352.92 57.0201 359.127 57.0201H368.207C374.414 57.0201 379.395 58.9741 383.149 62.8821C386.981 66.7135 388.896 71.7708 388.896 78.0542V95.1804C388.896 101.464 386.981 106.559 383.149 110.467C379.318 114.299 374.261 116.214 367.977 116.214H358.897ZM367.977 110.697C372.422 110.697 375.985 109.28 378.667 106.445C381.425 103.609 382.804 99.8546 382.804 95.1804V78.0542C382.804 73.38 381.464 69.6253 378.782 66.7901C376.1 63.9549 372.575 62.5373 368.207 62.5373H359.127C354.759 62.5373 351.234 63.9549 348.552 66.7901C345.947 69.6253 344.644 73.38 344.644 78.0542V95.1804C344.644 99.8546 345.947 103.609 348.552 106.445C351.158 109.28 354.606 110.697 358.897 110.697H367.977ZM423.22 115.295C417.396 115.295 413.22 114.069 410.691 111.617C408.162 109.088 406.898 104.95 406.898 99.2033V63.4568H396.783V57.9397H406.898V40.5837H412.99V57.9397H427.932V63.4568H412.99V99.2033C412.99 102.958 413.756 105.678 415.289 107.364C416.821 108.973 419.388 109.778 422.99 109.778H427.932V115.295H423.22ZM457.17 116.214C451.116 116.214 446.212 114.375 442.458 110.697C438.78 107.019 436.941 102.153 436.941 96.0999V78.2841C436.941 71.9241 438.78 66.7901 442.458 62.8821C446.212 58.9741 451.116 57.0201 457.17 57.0201H466.595C472.419 57.0201 477.093 58.9358 480.618 62.7672C484.219 66.5219 486.02 71.541 486.02 77.8244V87.4793H443.147V96.0999C443.147 100.468 444.412 103.992 446.94 106.674C449.546 109.356 452.956 110.697 457.17 110.697H465.905C470.043 110.697 473.377 109.51 475.905 107.134C478.511 104.682 479.813 101.502 479.813 97.5941H485.79C485.79 103.188 483.951 107.709 480.273 111.157C476.672 114.529 471.882 116.214 465.905 116.214H457.17ZM479.928 82.1921V77.8244C479.928 73.2267 478.702 69.5487 476.25 66.7901C473.798 63.9549 470.58 62.5373 466.595 62.5373H457.17C452.956 62.5373 449.546 63.9932 446.94 66.905C444.412 69.8168 443.147 73.6099 443.147 78.2841V82.1921H479.928ZM512.332 115.295C507.352 115.295 503.789 114.146 501.643 111.847C499.497 109.548 498.425 105.717 498.425 100.353V34.8367H504.631V100.353C504.631 103.724 505.206 106.138 506.356 107.594C507.582 109.05 509.574 109.778 512.332 109.778H516.011V115.295H512.332ZM542.877 116.214C536.823 116.214 531.919 114.375 528.165 110.697C524.486 107.019 522.647 102.153 522.647 96.0999V78.2841C522.647 71.9241 524.486 66.7901 528.165 62.8821C531.919 58.9741 536.823 57.0201 542.877 57.0201H552.302C558.126 57.0201 562.8 58.9358 566.325 62.7672C569.926 66.5219 571.727 71.541 571.727 77.8244V87.4793H528.854V96.0999C528.854 100.468 530.119 103.992 532.647 106.674C535.253 109.356 538.662 110.697 542.877 110.697H551.612C555.75 110.697 559.084 109.51 561.612 107.134C564.218 104.682 565.52 101.502 565.52 97.5941H571.497C571.497 103.188 569.658 107.709 565.98 111.157C562.378 114.529 557.589 116.214 551.612 116.214H542.877ZM565.635 82.1921V77.8244C565.635 73.2267 564.409 69.5487 561.957 66.7901C559.505 63.9549 556.287 62.5373 552.302 62.5373H542.877C538.662 62.5373 535.253 63.9932 532.647 66.905C530.119 69.8168 528.854 73.6099 528.854 78.2841V82.1921H565.635ZM584.132 57.9397H590.108V67.2498C591.794 64.338 594.208 62.0392 597.35 60.3534C600.491 58.591 603.863 57.7098 607.464 57.7098H611.717V63.2269H607.349C602.369 63.2269 598.269 64.8361 595.051 68.0544C591.909 71.2728 590.338 75.4489 590.338 80.5829V115.295H584.132V57.9397Z" fill="black"/>
<path d="M381.604 135.747C385.201 135.747 387.984 136.506 389.951 138.023C391.919 139.513 392.903 141.747 392.903 144.727C392.903 147.903 391.877 150.264 389.825 151.81C387.773 153.356 385.047 154.128 381.646 154.128H377.978V164.795H373.973V135.747H381.604ZM381.477 150.966C383.81 150.966 385.581 150.517 386.789 149.617C388.026 148.718 388.645 147.102 388.645 144.769C388.645 142.689 388.026 141.185 386.789 140.258C385.581 139.33 383.838 138.867 381.562 138.867H377.978V150.966H381.477ZM421.9 164.795H418.021L417.009 151.683C416.587 146.54 416.348 142.591 416.292 139.836L410.01 161.506H406.258L399.639 139.794C399.639 143.307 399.456 147.369 399.091 151.978L398.121 164.795H394.327L396.73 135.747H402.126L408.24 156.869L414.058 135.747H419.496L421.9 164.795ZM434.028 135.241C435.967 135.241 437.625 135.522 439.003 136.084C440.38 136.618 441.715 137.461 443.008 138.614L440.816 141.059C439.719 140.188 438.637 139.555 437.569 139.162C436.529 138.74 435.405 138.529 434.196 138.529C432.679 138.529 431.428 138.881 430.444 139.583C429.46 140.286 428.969 141.312 428.969 142.661C428.969 143.504 429.137 144.221 429.475 144.811C429.812 145.373 430.43 145.893 431.33 146.371C432.257 146.849 433.592 147.355 435.335 147.889C437.162 148.451 438.679 149.055 439.888 149.702C441.097 150.348 442.066 151.248 442.797 152.4C443.556 153.524 443.935 154.958 443.935 156.7C443.935 158.387 443.514 159.876 442.671 161.169C441.855 162.462 440.661 163.474 439.087 164.205C437.541 164.935 435.7 165.301 433.564 165.301C429.545 165.301 426.256 164.05 423.699 161.549L425.891 159.103C427.071 160.059 428.266 160.79 429.475 161.296C430.683 161.773 432.032 162.012 433.522 162.012C435.321 162.012 436.81 161.577 437.991 160.705C439.171 159.806 439.762 158.513 439.762 156.827C439.762 155.871 439.579 155.084 439.213 154.466C438.848 153.819 438.216 153.243 437.316 152.737C436.445 152.231 435.166 151.725 433.48 151.219C430.5 150.32 428.322 149.238 426.945 147.973C425.568 146.708 424.879 144.994 424.879 142.83C424.879 141.368 425.259 140.061 426.017 138.909C426.804 137.756 427.886 136.857 429.264 136.21C430.669 135.564 432.257 135.241 434.028 135.241ZM465.63 135.241C467.569 135.241 469.227 135.522 470.605 136.084C471.982 136.618 473.317 137.461 474.61 138.614L472.417 141.059C471.321 140.188 470.239 139.555 469.171 139.162C468.131 138.74 467.007 138.529 465.798 138.529C464.281 138.529 463.03 138.881 462.046 139.583C461.062 140.286 460.57 141.312 460.57 142.661C460.57 143.504 460.739 144.221 461.076 144.811C461.414 145.373 462.032 145.893 462.931 146.371C463.859 146.849 465.194 147.355 466.937 147.889C468.764 148.451 470.281 149.055 471.49 149.702C472.698 150.348 473.668 151.248 474.399 152.4C475.158 153.524 475.537 154.958 475.537 156.7C475.537 158.387 475.116 159.876 474.272 161.169C473.457 162.462 472.263 163.474 470.689 164.205C469.143 164.935 467.302 165.301 465.166 165.301C461.147 165.301 457.858 164.05 455.3 161.549L457.493 159.103C458.673 160.059 459.868 160.79 461.076 161.296C462.285 161.773 463.634 162.012 465.124 162.012C466.923 162.012 468.412 161.577 469.593 160.705C470.773 159.806 471.363 158.513 471.363 156.827C471.363 155.871 471.181 155.084 470.815 154.466C470.45 153.819 469.818 153.243 468.918 152.737C468.047 152.231 466.768 151.725 465.082 151.219C462.102 150.32 459.924 149.238 458.547 147.973C457.17 146.708 456.481 144.994 456.481 142.83C456.481 141.368 456.86 140.061 457.619 138.909C458.406 137.756 459.488 136.857 460.866 136.21C462.271 135.564 463.859 135.241 465.63 135.241ZM488.308 142.071C491.428 142.071 493.845 143.111 495.56 145.191C497.303 147.27 498.174 150.095 498.174 153.665C498.174 155.969 497.78 158.007 496.993 159.778C496.206 161.52 495.068 162.884 493.578 163.867C492.089 164.823 490.318 165.301 488.266 165.301C485.146 165.301 482.715 164.261 480.973 162.181C479.23 160.101 478.359 157.276 478.359 153.707C478.359 151.402 478.752 149.378 479.539 147.636C480.326 145.865 481.464 144.502 482.954 143.546C484.444 142.563 486.229 142.071 488.308 142.071ZM488.308 145.191C484.458 145.191 482.533 148.029 482.533 153.707C482.533 159.356 484.444 162.181 488.266 162.181C492.089 162.181 494 159.342 494 153.665C494 148.015 492.103 145.191 488.308 145.191ZM510.863 136.295C509.683 136.295 508.84 136.562 508.334 137.096C507.828 137.602 507.575 138.403 507.575 139.499V142.577H512.971L512.55 145.57H507.575V164.795H503.696V145.57H499.733V142.577H503.696V139.541C503.696 137.63 504.3 136.098 505.509 134.946C506.746 133.765 508.46 133.175 510.653 133.175C511.664 133.175 512.564 133.273 513.351 133.47C514.166 133.639 515.037 133.92 515.965 134.313L514.742 137.138C513.477 136.576 512.184 136.295 510.863 136.295ZM527.388 163.783C525.927 164.795 524.269 165.301 522.414 165.301C520.53 165.301 519.055 164.767 517.987 163.699C516.947 162.603 516.427 161.029 516.427 158.977V145.57H512.548V142.577H516.427V137.56L520.306 137.096V142.577H525.576L525.154 145.57H520.306V158.808C520.306 159.961 520.502 160.804 520.896 161.338C521.317 161.844 522.006 162.097 522.962 162.097C523.833 162.097 524.817 161.802 525.913 161.211L527.388 163.783ZM555.523 142.577L550.464 164.795H545.194L541.315 146.076L537.31 164.795H532.166L526.981 142.577H530.859L534.865 162.097L539.249 142.577H543.592L547.766 162.097L551.813 142.577H555.523ZM573.571 159.609C573.571 160.509 573.725 161.183 574.035 161.633C574.344 162.055 574.807 162.378 575.426 162.603L574.54 165.301C573.388 165.16 572.461 164.837 571.758 164.331C571.055 163.825 570.535 163.038 570.198 161.97C568.708 164.191 566.502 165.301 563.579 165.301C561.387 165.301 559.658 164.682 558.393 163.446C557.128 162.209 556.496 160.593 556.496 158.597C556.496 156.236 557.339 154.424 559.026 153.159C560.74 151.894 563.157 151.262 566.277 151.262H569.692V149.617C569.692 148.043 569.313 146.919 568.554 146.245C567.795 145.57 566.628 145.233 565.054 145.233C563.424 145.233 561.429 145.626 559.068 146.413L558.098 143.588C560.853 142.577 563.41 142.071 565.771 142.071C568.385 142.071 570.339 142.717 571.631 144.01C572.924 145.275 573.571 147.088 573.571 149.449V159.609ZM564.464 162.392C566.685 162.392 568.427 161.239 569.692 158.935V153.833H566.783C562.679 153.833 560.628 155.351 560.628 158.387C560.628 159.708 560.951 160.705 561.597 161.38C562.244 162.055 563.199 162.392 564.464 162.392ZM589.927 142.071C590.714 142.071 591.444 142.155 592.119 142.324L591.402 146.118C590.728 145.949 590.081 145.865 589.463 145.865C588.086 145.865 586.975 146.371 586.132 147.383C585.289 148.395 584.628 149.969 584.151 152.105V164.795H580.272V142.577H583.603L583.982 147.088C584.572 145.429 585.373 144.179 586.385 143.335C587.397 142.492 588.577 142.071 589.927 142.071ZM610.773 153.032C610.773 153.679 610.745 154.339 610.689 155.014H596.523C596.692 157.459 597.31 159.258 598.378 160.41C599.446 161.563 600.824 162.139 602.51 162.139C603.578 162.139 604.562 161.984 605.461 161.675C606.361 161.366 607.302 160.874 608.286 160.199L609.972 162.518C607.611 164.373 605.026 165.301 602.215 165.301C599.123 165.301 596.706 164.289 594.963 162.265C593.249 160.242 592.392 157.459 592.392 153.918C592.392 151.613 592.757 149.575 593.488 147.804C594.247 146.006 595.315 144.6 596.692 143.588C598.097 142.577 599.742 142.071 601.625 142.071C604.576 142.071 606.838 143.04 608.412 144.98C609.986 146.919 610.773 149.603 610.773 153.032ZM606.937 151.894C606.937 149.702 606.501 148.029 605.63 146.877C604.759 145.725 603.452 145.148 601.709 145.148C598.533 145.148 596.804 147.481 596.523 152.147H606.937V151.894Z" fill="#D1268D"/>
<defs>
<linearGradient id="paint0_linear_5382_988" x1="145.72" y1="63.6339" x2="50.5913" y2="207.487" gradientUnits="userSpaceOnUse">
<stop stop-color="#631898"/>
<stop offset="1" stop-color="#E31491"/>
</linearGradient>
<linearGradient id="paint1_linear_5382_988" x1="145.72" y1="63.6339" x2="50.5913" y2="207.487" gradientUnits="userSpaceOnUse">
<stop stop-color="#631898"/>
<stop offset="1" stop-color="#E31491"/>
</linearGradient>
<linearGradient id="paint2_linear_5382_988" x1="145.72" y1="63.6339" x2="50.5913" y2="207.487" gradientUnits="userSpaceOnUse">
<stop stop-color="#631898"/>
<stop offset="1" stop-color="#E31491"/>
</linearGradient>
</defs>
</svg>
