<svg width="468" height="203" viewBox="0 0 468 203" fill="none" xmlns="http://www.w3.org/2000/svg">
<path d="M157.607 138.748C150.299 138.748 144.407 136.464 139.931 131.896C135.455 127.238 133.217 121.163 133.217 113.672V93.256C133.217 85.7654 135.455 79.7364 139.931 75.169C144.499 70.5103 150.482 68.1809 157.881 68.1809H168.706C176.105 68.1809 182.043 70.5103 186.519 75.169C191.086 79.7364 193.37 85.7654 193.37 93.256V113.672C193.37 121.163 191.086 127.238 186.519 131.896C181.951 136.464 175.922 138.748 168.432 138.748H157.607ZM168.432 132.17C173.73 132.17 177.978 130.481 181.175 127.101C184.464 123.721 186.108 119.245 186.108 113.672V93.256C186.108 87.6838 184.509 83.2077 181.312 79.8278C178.115 76.4479 173.913 74.758 168.706 74.758H157.881C152.674 74.758 148.472 76.4479 145.275 79.8278C142.169 83.2077 140.616 87.6838 140.616 93.256V113.672C140.616 119.245 142.169 123.721 145.275 127.101C148.381 130.481 152.492 132.17 157.607 132.17H168.432ZM230.177 137.651C223.234 137.651 218.256 136.19 215.241 133.267C212.227 130.252 210.719 125.319 210.719 118.468V75.8541H198.661V69.2771H210.719V48.5866H217.982V69.2771H235.795V75.8541H217.982V118.468C217.982 122.944 218.895 126.187 220.722 128.197C222.549 130.115 225.609 131.074 229.903 131.074H235.795V137.651H230.177ZM270.65 138.748C263.433 138.748 257.587 136.555 253.111 132.17C248.726 127.786 246.534 121.985 246.534 114.769V93.5301C246.534 85.9481 248.726 79.8278 253.111 75.169C257.587 70.5103 263.433 68.1809 270.65 68.1809H281.886C288.828 68.1809 294.4 70.4646 298.602 75.032C302.896 79.5081 305.042 85.4914 305.042 92.982V104.492H253.933V114.769C253.933 119.975 255.44 124.177 258.455 127.375C261.561 130.572 265.626 132.17 270.65 132.17H281.063C285.996 132.17 289.97 130.755 292.984 127.923C296.09 125 297.643 121.209 297.643 116.55H304.768C304.768 123.218 302.576 128.608 298.191 132.719C293.898 136.738 288.189 138.748 281.063 138.748H270.65ZM297.78 98.1888V92.982C297.78 87.5011 296.319 83.1163 293.396 79.8278C290.472 76.4479 286.636 74.758 281.886 74.758H270.65C265.626 74.758 261.561 76.4936 258.455 79.9648C255.44 83.4361 253.933 87.9578 253.933 93.5301V98.1888H297.78ZM336.41 137.651C330.472 137.651 326.225 136.281 323.667 133.541C321.109 130.8 319.83 126.233 319.83 119.838V41.7355H327.229V119.838C327.229 123.858 327.915 126.735 329.285 128.471C330.746 130.206 333.121 131.074 336.41 131.074H340.795V137.651H336.41ZM372.823 138.748C365.606 138.748 359.76 136.555 355.284 132.17C350.899 127.786 348.707 121.985 348.707 114.769V93.5301C348.707 85.9481 350.899 79.8278 355.284 75.169C359.76 70.5103 365.606 68.1809 372.823 68.1809H384.059C391.001 68.1809 396.573 70.4646 400.775 75.032C405.069 79.5081 407.215 85.4914 407.215 92.982V104.492H356.106V114.769C356.106 119.975 357.613 124.177 360.628 127.375C363.733 130.572 367.798 132.17 372.823 132.17H383.236C388.169 132.17 392.143 130.755 395.157 127.923C398.263 125 399.816 121.209 399.816 116.55H406.941C406.941 123.218 404.749 128.608 400.364 132.719C396.071 136.738 390.362 138.748 383.236 138.748H372.823ZM399.953 98.1888V92.982C399.953 87.5011 398.492 83.1163 395.568 79.8278C392.645 76.4479 388.809 74.758 384.059 74.758H372.823C367.798 74.758 363.733 76.4936 360.628 79.9648C357.613 83.4361 356.106 87.9578 356.106 93.5301V98.1888H399.953ZM422.003 69.2771H429.128V80.3759C431.138 76.9046 434.015 74.1642 437.761 72.1545C441.506 70.0535 445.525 69.003 449.819 69.003H454.889V75.5801H449.682C443.744 75.5801 438.857 77.4984 435.02 81.335C431.275 85.1717 429.402 90.1502 429.402 96.2705V137.651H422.003V69.2771Z" fill="white"/>
<path d="M391.225 187.345C389.809 187.345 388.673 186.916 387.815 186.058C386.957 185.2 386.528 184.063 386.528 182.647C386.528 181.274 386.957 180.159 387.815 179.301C388.673 178.443 389.809 178.014 391.225 178.014C392.598 178.014 393.713 178.443 394.571 179.301C395.429 180.159 395.858 181.274 395.858 182.647C395.858 184.063 395.429 185.2 394.571 186.058C393.713 186.916 392.598 187.345 391.225 187.345ZM411.674 187.216C407.727 187.216 404.552 186.079 402.15 183.805C399.79 181.532 398.611 178.529 398.611 174.797V166.689C398.611 164.2 399.147 162.013 400.219 160.125C401.292 158.195 402.815 156.714 404.788 155.685C406.762 154.612 409.035 154.076 411.609 154.076H416.757C420.447 154.076 423.407 155.149 425.637 157.294C427.911 159.396 429.048 162.184 429.048 165.659H421.776C421.776 164.115 421.304 162.871 420.361 161.927C419.46 160.94 418.259 160.447 416.757 160.447H411.674C410 160.447 408.628 161.069 407.555 162.313C406.526 163.557 406.011 165.166 406.011 167.139V174.346C406.011 176.277 406.526 177.842 407.555 179.044C408.628 180.245 410.022 180.845 411.738 180.845H416.822C418.409 180.845 419.674 180.266 420.618 179.108C421.605 177.95 422.098 176.448 422.098 174.604H429.37C429.37 178.379 428.211 181.425 425.895 183.741C423.621 186.058 420.597 187.216 416.822 187.216H411.674ZM445.313 187.216C441.366 187.216 438.191 186.079 435.789 183.805C433.387 181.489 432.185 178.443 432.185 174.668V166.689C432.185 164.2 432.722 162.013 433.794 160.125C434.909 158.195 436.454 156.714 438.427 155.685C440.443 154.612 442.76 154.076 445.377 154.076H451.04C453.657 154.076 455.952 154.612 457.925 155.685C459.941 156.714 461.486 158.195 462.558 160.125C463.674 162.013 464.231 164.2 464.231 166.689V174.668C464.231 178.443 463.009 181.489 460.563 183.805C458.161 186.079 454.943 187.216 450.911 187.216H445.313ZM450.847 180.845C452.648 180.845 454.086 180.245 455.158 179.044C456.273 177.8 456.831 176.191 456.831 174.217V167.075C456.831 165.101 456.295 163.514 455.222 162.313C454.15 161.069 452.713 160.447 450.911 160.447H445.506C443.704 160.447 442.267 161.069 441.194 162.313C440.122 163.514 439.586 165.101 439.586 167.075V174.217C439.586 176.191 440.122 177.8 441.194 179.044C442.267 180.245 443.661 180.845 445.377 180.845H450.847Z" fill="white"/>
<path d="M156.093 16.6223C158.533 12.8318 162.732 10.541 167.24 10.541C177.733 10.541 184.067 22.1518 178.388 30.9743L111.226 135.303C108.786 139.094 104.587 141.384 100.079 141.384C89.5863 141.384 83.2521 129.774 88.9315 120.951L156.093 16.6223Z" fill="white"/>
<path d="M69.5962 28.8888C72.0363 25.0983 76.2354 22.8076 80.7434 22.8076C91.2358 22.8076 97.57 34.4184 91.8906 43.2409L24.7289 147.57C22.2888 151.36 18.0898 153.651 13.5817 153.651C3.08926 153.651 -3.24494 142.04 2.4345 133.218L69.5962 28.8888Z" fill="white"/>
<path d="M102.927 50.7579C98.599 50.7579 94.5527 52.9033 92.1243 56.4855L68.9402 90.6851C63.0655 99.3509 69.2733 111.059 79.7425 111.059C84.0703 111.059 88.1166 108.913 90.545 105.331L113.729 71.1316C119.604 62.4658 113.396 50.7579 102.927 50.7579Z" fill="white"/>
</svg>
